<?xml version="1.0" encoding="utf-8"?>
<!-- Generator: Adobe Illustrator 23.1.1, SVG Export Plug-In . SVG Version: 6.00 Build 0)  -->
<svg version="1.1" id="Layer_1" xmlns="http://www.w3.org/2000/svg" xmlns:xlink="http://www.w3.org/1999/xlink" x="0px" y="0px"
	 width="1080px" height="828.9px" viewBox="0 0 1080 828.9" style="enable-background:new 0 0 1080 828.9;" xml:space="preserve">
<style type="text/css">
	.st0{opacity:0.1;fill:#000C90;enable-background:new    ;}
	.st1{fill:url(#SVGID_1_);}
	.st2{fill:#F78181;}
	.st3{opacity:0.1;enable-background:new    ;}
	.st4{fill:#FFB9B9;}
	.st5{opacity:5.000000e-02;enable-background:new    ;}
	.st6{fill:#8189A6;}
	.st7{fill:#4C4C78;}
	.st8{fill:#F9D048;}
	.st9{fill:#CDD0DB;}
	.st10{fill:#9DA7C0;}
	.st11{opacity:0.3;fill:#FFFFFF;enable-background:new    ;}
	.st12{fill:none;stroke:#535461;stroke-width:2;stroke-miterlimit:10;}
	.st13{fill:#00325E;}
	.st14{opacity:0.2;fill:#000C90;enable-background:new    ;}
	.st15{opacity:0.2;fill:#FFFFFF;enable-background:new    ;}
</style>
<title>messaging</title>
<ellipse class="st0" cx="660" cy="779.9" rx="254" ry="49"/>
<path class="st0" d="M498.5,43.3c-37.5-0.2-73.7-9.9-110-17.4c-40.3-8.3-81.2-14-122.3-17.1c-43.8-3.3-88.5-3.6-131,5.2
	S52.5,41.2,28,69.5c-41.5,47.9-30.2,111.9-8.4,167c25.9,65.4,65,128.4,123,180c41.2,36.6,91.1,66.7,140.7,96.6
	c28,16.9,56.2,33.8,88,46c29.6,11.3,61.6,18.1,93.4,24.8c34,7.2,68,14.4,102.7,18.9c110.8,14.3,224.2,0.5,334.9-14.6
	c39-5.3,79.6-11.3,110.6-30.3c24.2-14.8,40.2-36.2,51.6-58.4c14.9-29,22.6-62.6,6.4-91.2c-24-42.2-91.7-60.9-118.2-102.2
	c-34-52.9,12.8-118.4-9.1-175c-9.1-23.6-29.4-43.5-50.6-61.8C842.5,25.6,777.6-12.1,698,3.6C630.6,16.9,570.8,43.7,498.5,43.3z"/>
<linearGradient id="SVGID_1_" gradientUnits="userSpaceOnUse" x1="732.9749" y1="-8.2201" x2="732.9749" y2="749.545" gradientTransform="matrix(1 0 0 -1 -60 792.43)">
	<stop  offset="0" style="stop-color:#808080;stop-opacity:0.25"/>
	<stop  offset="0.54" style="stop-color:#808080;stop-opacity:0.12"/>
	<stop  offset="1" style="stop-color:#808080;stop-opacity:0.1"/>
</linearGradient>
<path class="st1" d="M769.1,190c-0.6-0.7-1.2-1.3-1.8-2c4.8-5.5,9.8-11.1,9.8-18.2c0-8.6-7.7-15.1-10.5-23.2
	c-3.9-11,1.5-22.8,3.7-34.3c3.5-18.8-1.7-38.2-13.9-52.9c-2.2-2.6-4.8-5.2-8.2-6.2c-5.1-1.6-10.4,0.6-15.7,1.3
	c-17.4,2.2-33.2-12.8-50.7-11.5c-1.2,0-2.3,0.3-3.4,0.8c-2.3,1.1-3.5,3.5-4.9,5.5c-5.4,8-14.5,12-23.6,16.1
	c-1.1,0.3-2.2,0.8-3.2,1.5c-2.7,1.3-5.4,2.6-7.9,4.1c-17.1,10.1-14.6,24.3-4.5,33.1c-2,9.8-12,18.5-10.3,28.6
	c1.4,7.9,9.6,13.3,11.2,21.2c0.9,4.6-0.5,8.9-2.5,13.3c-19.2,4.4-40.8,12.6-42.5,27c-2.9,25.1-11.8,94.3-11.8,94.3
	s-10.3,55.4,28.6,29.2l-0.5,1.5c-7,21.2-11.8,43.1-14.3,65.4c-0.4,3.3-1.2,5.9-2.6,6.8c-0.5,0.3,0.5,0.8,2.8,1.4
	c-0.2,0.9-0.5,1.9-0.8,2.8c-4.3,16.2-7,32.8-8.2,49.5c-1.1,14.8-3.1,29.5-6.1,44.1c-9.2,46.4,0,105.9,0,105.9l20.1,94.7l3.4,16.2
	c2.3,2.5,5,4.5,8.2,5.9c1.3,5.8,2.3,11.7,2.8,17.6c0,0.7,0.1,1.3,0.1,2c-2.5,0.3-4.6,1.7-6,3.7c-7.2,10.1,1,18.2-26.6,38.3
	c-7.2,5.2-10.6,10-11.5,14l0,0c-0.9,4.3,1.1,7.8,4.8,10.2l0,0c0.6,0.4,1.3,0.8,1.9,1.1l0,0c0.3,0.2,0.7,0.3,1,0.5l0,0
	c0.4,0.1,0.7,0.3,1.1,0.4h0.1l1.1,0.3h0.1l1.2,0.3h0.1l1.1,0.2h0.1l1.2,0.2h0.1l1.1,0.1h0.2l1.2,0.1h0.2h1.1h0.2h1.2h0.2l1.1-0.1
	h0.3l1.2-0.1h0.1l1.1-0.2l0.3,0l1.2-0.2h0.1l1.1-0.3l0.3-0.1c0.4-0.1,0.8-0.2,1.2-0.3h0.1l1.1-0.4l0.3-0.1c0.4-0.2,0.8-0.3,1.2-0.5
	c18.4-8.1,56.3-29.2,56.3-29.2v-0.7c0-0.1,0-0.2,0-0.3s0-0.2,0-0.3s0-0.2,0-0.3v-0.3c0-0.1,0-0.3,0-0.4v-0.3c0-0.2,0-0.3,0-0.5
	s0-0.6,0-0.9l0,0c-0.1-8.7-1-29-5-28.2c-1.4,0.3-2.3,2.2-3.2,4.4l-0.5-0.9c-3.9-7.5-9.5-20.5-10.1-33.1c3.1-2.3,6.1-4.9,8.7-7.7
	c0,0-2.1-8.7-3.8-17.8c-1.5-7.9-2.8-16.2-2.3-19.5c1-7.1-12.3-61.5-12.3-61.5s1.4-12,4.1-28.6c5.4-32.4,15.9-82.4,31.7-96.5
	c0.4-0.3,0.7-0.6,1.1-0.9c0,0,11.3,2,20.5,65.5l2.7,28.3c0.8,7.8,2.1,15.6,4,23.2c1.8,7.5,3.8,20.1,2.6,37.2
	c-1.2,16.7-1.7,36.3-1.9,50.1c-0.2,10.4-0.2,17.5-0.2,17.5c1.9,1.6,4,3,6.2,4.2v9.2c0,2-0.8,3.8-2.2,5.3l0,0
	c-1.5,1.6-2.5,3.6-3.1,5.7c-1.8,3.2-3.3,8.5-3.9,16.9c-2,27.2-3.1,24.2-3.1,24.2c-1.2,2.9-2,6-2.3,9.2l0,0c-0.1,0.6-0.1,1.2-0.1,1.8
	c0,0.1,0,0.2,0,0.3c0,0.3,0,0.5,0,0.8c0,0.1,0,0.3,0,0.4c0,0.1,0,0.3,0,0.6c0,0.2,0,0.4,0.1,0.5c0,0.1,0,0.3,0.1,0.4
	s0.1,0.5,0.2,0.7l0.1,0.3c0.1,0.2,0.1,0.5,0.2,0.7l0.1,0.2c0.1,0.2,0.2,0.4,0.3,0.6l0.1,0.2c0.1,0.2,0.2,0.5,0.4,0.7l0.1,0.2
	c0.2,0.2,0.3,0.4,0.5,0.7l0.1,0.2c0.2,0.2,0.4,0.4,0.6,0.6l0.1,0.1c0.2,0.2,0.5,0.4,0.7,0.5l0.1,0.1c0.3,0.2,0.6,0.3,0.8,0.5
	l0.2,0.1c0.3,0.1,0.7,0.3,1,0.4l0.2,0c0.4,0.1,0.8,0.2,1.1,0.3l0,0c0.4,0.1,0.8,0.2,1.3,0.2h0.2c0.4,0,0.9,0.1,1.4,0.1h0.3
	c0.5,0,1,0,1.5,0h0.2c0.6,0,1.2-0.1,1.8-0.2c21.5-3,31.8-5,30.7-17.1c-0.6-7.3-2.3-17.9-3.6-25.2c-0.6-3.7-1.8-7.3-3.5-10.6
	c0.1-0.6,0.1-1.1,0.2-1.8c0.4-5,0.3-11-1.2-14.9l0.5-8.8c5.3-1.4,10.1-4.2,13.8-8.3c0,0,0.2-6.5,0.6-15.2c0.7-13.4,2-31.9,4.5-39.2
	c4.1-12.1,0-54.5,0-54.5s-15.4-72.6-1-103.9c12.7-27.6,12.5-55.2,0.4-82c0.2-0.2,0.5-0.4,0.7-0.6c0,0-3.1-2-2-25.2
	c0.8-17.7-4.4-36-6.9-43.6c3.9,1.7,7.9,3.1,12,4.3c23.5,7,25.6-19.3,25.6-19.3l5.1-39.3l6.1-58.6l0,0
	C778.7,214.9,780.9,203.4,769.1,190z M664.9,151.1c0,0.6-0.1,1.3-0.1,1.9c-0.2,2.1-0.6,4.1-1.3,6.1c0.7-2.7,1.1-5.4,1.3-8.2
	L664.9,151.1z M726.9,294.3c0.4,0.7,0.7,1.3,1,2l-2.6-1.3c1-4.8,2.5-9.4,4.6-13.7c2.5-5.1,4.6-10.4,6.3-15.8
	c-0.1,6.3,0.2,12.6,0.9,18.9C739.2,300.3,726.9,294.3,726.9,294.3L726.9,294.3z"/>
<path class="st2" d="M640,75.1c-3.3,2.2-6.7,4.8-7.9,8.6c-1.9,6.1,2.8,12.2,3.3,18.6c0.8,11.6-12.3,21.2-10.3,32.6
	c1.3,7.9,9.4,13.2,10.9,21c2.3,11.4-10.1,21.4-9.1,33c0.5,6.2,4.8,11.4,9.7,15.2c6.8,5.3,15,8.7,23.6,9.7
	c-0.6-9.9-7.9-18.9-6.7-28.8c0.9-6.8,5.6-12.3,8.4-18.5c4.8-10.9,3.3-23.6,0.4-35.2c-2.9-11.6-7.1-23.1-7.3-35
	c-0.1-7.2,3.2-17.8,0.8-24.6C652.8,63.4,645.6,71.2,640,75.1z"/>
<path class="st3" d="M640,75.1c-3.3,2.2-6.7,4.8-7.9,8.6c-1.9,6.1,2.8,12.2,3.3,18.6c0.8,11.6-12.3,21.2-10.3,32.6
	c1.3,7.9,9.4,13.2,10.9,21c2.3,11.4-10.1,21.4-9.1,33c0.5,6.2,4.8,11.4,9.7,15.2c6.8,5.3,15,8.7,23.6,9.7
	c-0.6-9.9-7.9-18.9-6.7-28.8c0.9-6.8,5.6-12.3,8.4-18.5c4.8-10.9,3.3-23.6,0.4-35.2c-2.9-11.6-7.1-23.1-7.3-35
	c-0.1-7.2,3.2-17.8,0.8-24.6C652.8,63.4,645.6,71.2,640,75.1z"/>
<path class="st4" d="M649.6,744.4l-9,9c0,0-32,17-28-6c1.1-6.8,1.3-13.8,0.7-20.7c-0.8-9.6-2.7-19.1-5.7-28.3l30-6
	c-5,15.7,3.2,35.4,8.4,45.5C648,741.9,649.6,744.4,649.6,744.4z"/>
<path class="st4" d="M717.7,726.2c-0.2,3.1-0.6,6.1-1.1,9.2c0,0-25,17-27-2c-1.3-12.4,1.6-18,3.9-20.4l0,0c1.3-1.4,2.1-3.3,2.1-5.2
	v-22.4l22,7l-1,19C718.1,715.3,718.1,721.2,717.7,726.2z"/>
<path class="st5" d="M649.6,744.4l-9,9c0,0-32,17-28-6c1.1-6.8,1.3-13.8,0.7-20.7c7-1,15.3,6.7,15.3,6.7
	c11.7,16.5,14.9,10.3,17.4,4.5C648,741.9,649.6,744.4,649.6,744.4z"/>
<path class="st6" d="M628.6,735.4c0,0-14-13-21-3s1,18-26,38s0,33,18,25s55-29,55-29s0-33-5-32S645.6,759.4,628.6,735.4z"/>
<path class="st5" d="M717.7,726.2c-0.2,3.1-0.6,6.1-1.1,9.2c0,0-25,17-27-2c-1.3-12.4,1.6-18,3.9-20.4c1.8-1.3,4.1-1.6,6.1-0.6
	c4-1.8,8.4,1.2,12,5C714.1,720,716.1,722.9,717.7,726.2z"/>
<path class="st6" d="M699.6,714.4c0,0-11-6-13,21s-3,24-3,24s-10,24,11,21s31-5,30-17c-0.6-7.2-2.3-17.7-3.5-24.9
	c-1.2-7.1-4.5-13.7-9.4-19C708,715.5,703.6,712.6,699.6,714.4z"/>
<path class="st7" d="M735.6,586.4c0,0,4,42,0,54c-2.4,7.3-3.8,25.6-4.4,38.9c-0.4,8.6-0.6,15.1-0.6,15.1c-19,20-41,0-41,0
	s0-7,0.2-17.3c0.2-13.7,0.7-33.1,1.8-49.7c1.2-16.9-0.7-29.4-2.5-36.9c-1.8-7.6-3.1-15.3-3.9-23l-2.6-28.1c-9-63-20-65-20-65
	c-0.4,0.3-0.7,0.6-1.1,0.9c-15.4,14-25.7,63.6-30.9,95.7c-2.7,16.5-4,28.4-4,28.4s13,54,12,61c-0.5,3.2,0.8,11.5,2.3,19.3
	c1.7,9.1,3.7,17.7,3.7,17.7c-25,27-42,6-42,6l-3.4-16.1l-19.6-93.9c0,0-9-59,0-105c2.9-14.4,4.9-29,6-43.7c1.1-16.6,3.8-33,8-49.1
	c1.2-4.8,2.6-9.5,4.1-14.2c2.2-7,37.5-6.5,72.9-6.5c26.5,0,51.8,3.7,59.1,16.5c1.7,3,3.2,5.9,4.6,8.9c12.7,27.2,13,55.2,0.4,83.1
	C720.6,514.4,735.6,586.4,735.6,586.4z"/>
<path class="st4" d="M651.6,223.4c0,0-53-54-13-50c9.1,0.9,15.2-0.7,19.3-3.8c4.6-3.5,6.6-8.8,7.1-14.3c1.1-11-3.4-23-3.4-23
	s54-43,43,11c-1.2,5.5-1.9,11.1-2.1,16.7c-0.2,11.5,3.6,15.9,8.9,17.6c8.9,3,22.2-1.2,28.2,8.7C750.6,204.4,651.6,223.4,651.6,223.4
	z"/>
<path class="st5" d="M704.6,143.4c-1.2,5.5-1.9,11.1-2.1,16.7c-1.4,0.5-2.9,0.9-4.4,1.2c-11.4,2.6-23.3,0.4-33.1-6
	c1.1-11-3.4-23-3.4-23S715.6,89.4,704.6,143.4z"/>
<path class="st4" d="M731.6,117.4c0,23.7-19.3,43-43,43s-43-19.3-43-43c0-0.8,0-1.6,0.1-2.4c1.4-23.7,21.7-41.8,45.4-40.5
	C713.8,75.8,731.6,94.6,731.6,117.4z"/>
<path class="st5" d="M651.6,223.4c0,0-53-54-13-50c9.1,0.9,15.2-0.7,19.3-3.8c-7.7,12.8-16.5,35.9,22.7,33.8
	c35.8-2,35.2-16.3,30.8-25.7c8.9,3.1,22.2-1.2,28.2,8.7C750.6,204.4,651.6,223.4,651.6,223.4z"/>
<path class="st3" d="M735.6,404.4c-9.1,11.8-125.1-3.7-142.1-8.8c1.2-4.8,2.6-9.5,4.1-14.2c2.2-7,37.5-6.5,72.9-6.5
	c26.5,0,51.8,3.7,59.1,16.5c1.7,3,3.2,5.9,4.6,8.9C734.8,403.8,735.6,404.4,735.6,404.4z"/>
<path class="st8" d="M662.6,164.4c0,0-67.5,5.5-70.5,31.5c-2.9,24.9-11.5,93.5-11.5,93.5s-10,55,28,29l-0.5,1.5
	c-6.9,21.1-11.5,42.8-14,64.8c-0.4,3.3-1.2,5.9-2.6,6.7c-5,3,134,23,144,10c0,0-3-2-2-25s-8-47-8-47s-8-24,3-47s7-30,7-30l38-29
	c0,0,8.2-14.1-6.8-31.4c-9.1-10.4-21.9-16.7-35.7-17.6l-26.2-1.9c0,0,28.7,30.9-25.3,33.9S662.6,164.4,662.6,164.4z"/>
<path class="st5" d="M617.6,219.4c0,0,2,16-2,21s-5,28,0,42"/>
<path class="st3" d="M661.5,475.3c-15.4,14-25.7,63.6-30.9,95.7c-7.3-44.7,23-118.6,23-118.6L661.5,475.3z"/>
<path class="st3" d="M644.6,697.4c-25,27-42,6-42,6l-3.4-16.1c9.5,4.9,25.4,8.7,41.6-7.6C642.6,688.8,644.6,697.4,644.6,697.4z"/>
<path class="st3" d="M731.2,679.3c-0.4,8.6-0.6,15.1-0.6,15.1c-19,20-41,0-41,0s0-7,0.2-17.3C698,682.3,712.8,688,731.2,679.3z"/>
<path class="st9" d="M626.3,253.4h60.5c2.1,0,3.8,1.7,3.8,3.7v20.5c0,2.1-1.7,3.8-3.8,3.8h-60.5c-2.1,0-3.8-1.7-3.8-3.8v-20.5
	C622.6,255,624.3,253.4,626.3,253.4z"/>
<path class="st5" d="M626.3,253.4h60.5c2.1,0,3.8,1.7,3.8,3.7v20.5c0,2.1-1.7,3.8-3.8,3.8h-60.5c-2.1,0-3.8-1.7-3.8-3.8v-20.5
	C622.6,255,624.3,253.4,626.3,253.4z"/>
<path class="st9" d="M626.3,254.4h60.5c2.1,0,3.8,1.7,3.8,3.7v20.5c0,2.1-1.7,3.8-3.8,3.8h-60.5c-2.1,0-3.8-1.7-3.8-3.8v-20.5
	C622.6,256,624.3,254.4,626.3,254.4z"/>
<circle class="st10" cx="676.1" cy="267.9" r="3"/>
<path class="st5" d="M593.7,297.7c1.8-5.4,6-9.8,11.3-11.9c3.4-1.4,7.6-4,9.7-8.7c3.9-8.7,10.9-17.7,28.9-11.7s-5,10-5,10s41-6,25,6
	s-36,19-36,19l-9.8,10.4c-6,6.4-16.4,6.3-22-0.4C593.2,307.3,591.9,303.2,593.7,297.7z"/>
<path class="st4" d="M592.7,295.7c1.8-5.4,6-9.8,11.3-11.9c3.4-1.4,7.6-4,9.7-8.7c3.9-8.7,10.9-17.7,28.9-11.7s-5,10-5,10s41-6,25,6
	s-36,19-36,19l-9.8,10.4c-6,6.4-16.4,6.3-22-0.4C592.2,305.3,590.9,301.2,592.7,295.7z"/>
<path class="st5" d="M733.6,316.4l-7,17l-9-6.6l-25-18.4l-17-11c-24-18,0-21,0-21c-9-4,0-8,0-8c32-7,26,19,26,19l20.3,10.5l6.7,3.5
	L733.6,316.4z"/>
<path class="st4" d="M735.6,314.4l-7,17l-9-6.6l-25-18.4l-17-11c-24-18,0-21,0-21c-9-4,0-8,0-8c32-7,26,19,26,19l20.3,10.5l6.7,3.5
	L735.6,314.4z"/>
<path class="st5" d="M735.6,314.4l-7,17l-9-6.6c8.1,0.3,17.7-3.6,4.2-28.9l6.7,3.5L735.6,314.4z"/>
<path class="st8" d="M772.6,213.4l1.9,7.9l-5.9,58.1l-5,39c0,0-2,26-25,19s-25-14-25-14s33,11,12-28c0,0,12,6,10-10s0-44,0-44
	L772.6,213.4z"/>
<path class="st5" d="M731.6,117.4c0,20.1-13.9,37.5-33.5,41.9c-1.4-4.2-2.5-8.3-1.4-12.5c2-8.2,11.5-14.1,10.4-22.5
	c-0.1-0.9-0.4-1.8-1-2.6c-2.1-2.8-6.4-1.4-9.8-0.7c-8.8,1.8-18.5-4.2-20.9-12.9c-7.8,7.7-19.3,10.4-29.7,6.9
	c1.4-23.7,21.7-41.8,45.4-40.5C713.7,75.8,731.5,94.6,731.6,117.4L731.6,117.4z"/>
<path class="st2" d="M676.4,106.1c2.4,8.7,12.1,14.7,20.9,12.9c3.4-0.7,7.7-2.1,9.8,0.7c0.5,0.8,0.9,1.7,1,2.6
	c1.1,8.4-8.4,14.3-10.4,22.5c-2.1,8.4,4,16.5,5.3,25.1c0.7,4.7,0,9.5,0,14.2c0,4.7,1.1,9.8,4.6,13s10,3.2,12.4-0.9
	c11.2,6,6.8,24.4,15.3,33.8c4.7,5.2,12.5,6.5,19.5,5.8c1.6,0,3.2-0.5,4.6-1.5c1.2-1.1,1.9-2.6,2.2-4.2c1.8-6.7,1.5-13.7-0.9-20.2
	c-1.1-3.1-2.7-6.2-2.3-9.5c0.3-2.6,1.8-4.8,3.5-6.8c5.4-6.7,12.7-13.1,12.7-21.7s-7.5-15-10.2-23c-3.8-10.9,1.5-22.6,3.6-34
	c3.4-18.6-1.6-37.8-13.6-52.5c-2.2-2.6-4.7-5.2-8-6.2c-4.9-1.6-10.2,0.6-15.3,1.3c-17,2.1-32.4-12.7-49.5-11.4
	c-1.1,0-2.2,0.3-3.3,0.8c-2.2,1.1-3.4,3.4-4.8,5.5c-7.5,11.2-22.3,14.5-33.9,21.4C605.7,94.1,650.5,131,676.4,106.1z"/>
<path class="st11" d="M599.6,791.4c-11.7,5.2-27.2,1.5-29.2-7.1c-2.5,11.5,15.8,17.1,29.2,11.1c18-8,55-29,55-29s0-1.5,0-4
	C653.5,763,617.3,783.4,599.6,791.4z"/>
<path class="st11" d="M724.5,762.8c-1.2,9-11.1,10.9-30,13.6c-9.6,1.4-12.7-2.9-13.3-7.9c-0.6,6.4,1.2,13.6,13.3,11.9
	c21-3,31-5,30-17C724.6,763.2,724.5,763,724.5,762.8z"/>
<path class="st12" d="M848.3,780.8c0,0-14.5-73.4,15.3-123.6c12.6-21,18.1-45.5,15.6-69.9c-1.3-11.6-3.6-23-7-34.1"/>
<path class="st13" d="M890.8,521.3c-0.8,8.8-19,32.7-19,32.7s-13.5-26.8-12.7-35.6c0.6-8.8,8.2-15.4,17-14.8
	c8.8,0.6,15.4,8.2,14.8,17C890.9,520.9,890.9,521.1,890.8,521.3L890.8,521.3z"/>
<path class="st13" d="M912.6,572.2c-5.4,6.9-33.7,17.1-33.7,17.1s3.2-29.9,8.7-36.8c5.1-7.1,15.1-8.8,22.2-3.6
	c7.1,5.1,8.8,15.1,3.6,22.2C913.2,571.5,912.9,571.9,912.6,572.2L912.6,572.2z"/>
<path class="st13" d="M903.8,655c-8.2,3.2-37.7-2.2-37.7-2.2s17.9-24.2,26.1-27.4c8.1-3.4,17.4,0.5,20.8,8.6
	c3.4,8.1-0.5,17.4-8.6,20.8C904.2,654.8,904,654.9,903.8,655z"/>
<path class="st13" d="M883.1,716.1c-7.5,4.6-37.6,4.2-37.6,4.2s13.6-26.8,21.1-31.4c7.4-4.7,17.3-2.4,22,5s2.4,17.3-5,22
	C883.4,715.9,883.3,716,883.1,716.1L883.1,716.1z"/>
<path class="st13" d="M845.5,588c5.7,6.7,34.4,15.7,34.4,15.7s-4.5-29.7-10.2-36.4c-5.8-6.6-15.9-7.2-22.5-1.4
	C840.7,571.5,840,581.3,845.5,588z"/>
<path class="st13" d="M822.1,659.8c7.5,4.7,37.5,4.7,37.5,4.7s-13.2-27-20.6-31.7c-7.4-4.8-17.2-2.6-22,4.8
	c-4.8,7.4-2.6,17.2,4.8,22C821.9,659.6,822,659.7,822.1,659.8L822.1,659.8z"/>
<path class="st13" d="M809,732.6c6.6,5.8,36.2,11,36.2,11s-8.4-28.8-15-34.7c-6.4-6.1-16.4-5.8-22.5,0.5s-5.8,16.4,0.5,22.5
	C808.5,732.2,808.7,732.4,809,732.6z"/>
<path class="st13" d="M568,134.9c-0.3-7.8-6.7-14-14.5-14H291.9c-7.4-0.1-13.8,5.4-14.8,12.7c-1,8,4.7,15.2,12.7,16.2
	c0.6,0.1,1.1,0.1,1.7,0.1h262h0.9c4.7-0.4,9.2,2.1,11.3,6.2c0.8,1.6,1.4,3.3,1.7,5l0.6,0.3V134.9L568,134.9z"/>
<path class="st13" d="M568,228.9c-0.3-7.8-6.7-14-14.5-14H440.9c-7.4-0.1-13.8,5.4-14.8,12.7c-1,8,4.7,15.2,12.7,16.2
	c0.6,0.1,1.1,0.1,1.7,0.1h113h0.9c4.7-0.4,9.2,2.1,11.3,6.2c0.8,1.6,1.4,3.3,1.7,5l0.6,0.3V228.9L568,228.9z"/>
<path class="st14" d="M228,87.9c0.2-7.7,4.4-14,9.5-14h171.1c5.2,0,9.5,6.5,9.5,14.5s-4.3,14.5-9.5,14.5H237.4
	c-3.3-0.1-6.3,1.9-7.5,5c-0.8,2-1.3,4.1-1.5,6.2l-0.4,0.3V87.9L228,87.9z"/>
<path class="st14" d="M228,181.9c0.2-7.7,5.3-14,11.5-14h208c6.3,0,11.5,6.5,11.5,14.5c0,8-5.2,14.5-11.5,14.5h-208
	c-4,0-7.7,1.8-9.1,5c-0.9,2-1.5,4.1-1.9,6.2l-0.5,0.3L228,181.9L228,181.9z"/>
<circle class="st15" cx="447" cy="228.9" r="5"/>
<circle class="st15" cx="464" cy="228.9" r="5"/>
<circle class="st15" cx="481" cy="228.9" r="5"/>
</svg>
