<?xml version="1.0" standalone="no"?>
<!DOCTYPE svg PUBLIC "-//W3C//DTD SVG 20010904//EN"
 "http://www.w3.org/TR/2001/REC-SVG-20010904/DTD/svg10.dtd">
<svg version="1.0" xmlns="http://www.w3.org/2000/svg"
 width="1128.000000pt" height="741.000000pt" viewBox="0 0 1128.000000 741.000000"
 preserveAspectRatio="xMidYMid meet">
<metadata>
Created by potrace 1.15, written by Peter Selinger 2001-2017
</metadata>
<g transform="translate(0.000000,741.000000) scale(0.100000,-0.100000)"
fill="#000000" stroke="none">
<path d="M6359 6596 c-106 -29 -201 -113 -240 -215 -20 -51 -23 -79 -27 -298
-2 -134 -8 -243 -13 -243 -5 0 -9 -49 -9 -110 0 -67 4 -110 10 -110 6 0 10
-40 10 -100 0 -60 -4 -100 -10 -100 -6 0 -10 -73 -10 -200 0 -127 4 -200 10
-200 6 0 10 -30 10 -70 0 -40 -4 -70 -10 -70 -6 0 -10 -73 -10 -199 0 -123 4
-202 10 -206 7 -4 10 -564 10 -1648 0 -1081 4 -1664 10 -1706 21 -124 92 -220
204 -272 l61 -28 -1065 0 -1065 0 53 20 c29 11 60 32 69 45 14 22 14 28 -2 69
-21 55 -54 83 -108 89 -23 2 -102 11 -175 20 -89 10 -145 21 -171 34 -38 20
-39 20 -107 1 -38 -10 -85 -19 -105 -19 -47 0 -65 -21 -78 -94 -15 -79 -14
-133 2 -143 6 -4 93 -10 192 -13 99 -3 -447 -7 -1212 -8 -921 -1 -1393 -5
-1393 -12 0 -7 1487 -10 4440 -10 2953 0 4440 3 4440 10 0 7 -241 10 -702 10
l-703 1 61 29 c71 35 146 109 177 178 l22 47 3 1757 c2 1744 2 1757 22 1763
19 6 20 16 20 350 0 333 -1 343 -20 348 -19 5 -20 17 -22 528 l-3 524 -28 60
c-35 76 -110 146 -185 177 l-57 23 -1130 2 c-874 1 -1140 -1 -1176 -11z m1279
-178 c18 -18 14 -56 -7 -68 -21 -11 -320 -14 -358 -4 -18 5 -23 14 -23 38 0
18 3 36 7 39 12 13 368 8 381 -5z m-828 -47 c0 -51 15 -89 48 -124 61 -64 35
-62 621 -65 575 -3 618 0 673 46 38 32 67 95 68 145 l0 37 189 0 c187 0 189 0
241 -27 66 -35 107 -91 120 -163 7 -37 9 -901 8 -2595 l-3 -2540 -22 -40 c-25
-47 -64 -85 -113 -111 -33 -18 -83 -19 -1085 -22 -751 -2 -1065 1 -1104 9 -72
15 -151 90 -169 161 -15 58 -17 5089 -2 5152 14 61 59 117 119 148 53 28 56
28 232 28 l179 0 0 -39z"/>
<path d="M8295 5891 c-97 -24 -167 -127 -150 -220 35 -185 281 -225 366 -59
32 62 24 154 -17 204 -49 61 -131 92 -199 75z"/>
<path d="M7349 4673 c-25 -64 -49 -180 -49 -235 0 -32 -1 -58 -3 -58 -2 0 -26
11 -55 25 -60 29 -184 65 -225 65 -27 0 -28 -1 -21 -37 11 -65 54 -186 87
-243 50 -89 139 -171 238 -219 83 -40 233 -81 274 -75 87 12 114 18 176 39
222 76 362 244 408 488 8 47 8 47 -19 47 -36 0 -191 -45 -239 -70 l-38 -19 -6
78 c-3 42 -18 114 -32 159 -24 77 -27 81 -46 71 -34 -18 -134 -124 -174 -184
l-37 -56 -30 48 c-32 50 -151 178 -181 194 -14 8 -19 4 -28 -18z"/>
<path d="M2870 3537 c-31 -16 -52 -54 -47 -89 3 -22 -1 -28 -14 -28 -38 0
-129 -42 -171 -79 -48 -43 -90 -112 -108 -181 -7 -24 -23 -58 -37 -74 -23 -28
-25 -37 -21 -102 4 -52 13 -88 36 -135 l30 -64 1 55 c1 63 15 95 30 70 6 -8
17 -24 25 -35 15 -19 16 -19 6 8 -5 16 -10 43 -10 62 0 29 14 46 129 154 82
77 136 121 150 121 63 0 146 -58 185 -129 47 -87 39 -189 -20 -267 l-34 -45
27 15 c43 22 110 95 134 144 82 175 8 373 -169 458 -1 0 3 15 9 33 15 41 -3
86 -42 106 -34 18 -56 19 -89 2z"/>
<path d="M2999 2664 c-45 -47 -99 -74 -149 -74 -36 0 -48 6 -86 46 -40 41 -48
45 -77 39 -93 -20 -266 -168 -320 -274 -47 -91 -87 -315 -94 -516 -6 -193 7
-271 55 -334 26 -35 27 -39 27 -176 0 -122 3 -144 20 -174 33 -56 46 -51 69
21 5 16 8 16 51 -3 34 -15 67 -20 128 -20 95 -1 120 7 166 50 18 17 43 31 56
31 18 0 31 14 59 65 20 36 38 76 42 90 4 15 13 25 25 25 10 0 47 22 83 49 93
70 175 89 251 57 65 -28 42 -77 -64 -134 l-53 -29 34 -7 c18 -3 155 -1 303 4
149 5 288 10 311 10 74 0 79 11 192 365 56 176 102 327 102 335 0 28 -44 200
-51 200 -8 0 -93 -249 -87 -255 2 -2 21 48 42 111 21 64 39 114 41 112 2 -2
12 -37 23 -79 l19 -76 -90 -291 c-49 -160 -93 -289 -97 -287 -4 2 -15 42 -24
89 l-18 84 47 142 c26 78 45 143 43 145 -2 3 -26 -65 -54 -151 l-49 -156 -96
6 -96 7 5 -29 c3 -24 -2 -33 -27 -51 -43 -31 -184 -65 -238 -57 -49 6 -161 48
-211 79 l-33 20 38 17 c21 10 51 31 66 47 l28 30 -50 39 c-28 22 -50 43 -51
48 0 5 -8 18 -17 28 -15 17 -15 20 9 46 14 15 31 37 37 48 9 19 7 24 -14 38
-32 21 -31 37 3 94 27 47 27 48 26 227 -1 162 -3 184 -22 221 -30 60 -69 102
-113 124 -55 29 -80 25 -120 -16z"/>
<path d="M4866 1128 c-9 -12 -16 -32 -16 -43 -1 -26 -21 -49 -95 -109 -33 -26
-63 -54 -68 -62 -14 -25 34 -38 148 -41 61 -1 172 -7 247 -14 l136 -12 65 30
c98 47 157 136 122 189 -30 46 -76 58 -230 60 -77 1 -171 7 -210 13 -38 6 -73
11 -77 11 -4 0 -14 -10 -22 -22z"/>
</g>
</svg>
