<?xml version="1.0" standalone="no"?>
<!DOCTYPE svg PUBLIC "-//W3C//DTD SVG 20010904//EN"
 "http://www.w3.org/TR/2001/REC-SVG-20010904/DTD/svg10.dtd">
<svg version="1.0" xmlns="http://www.w3.org/2000/svg"
 width="728.000000pt" height="512.000000pt" viewBox="0 0 728.000000 512.000000"
 preserveAspectRatio="xMidYMid meet">
<metadata>
Created by potrace 1.15, written by Peter Selinger 2001-2017
</metadata>
<g transform="translate(0.000000,512.000000) scale(0.100000,-0.100000)"
fill="#000000" stroke="none">
<path d="M1523 3930 c-82 -19 -146 -89 -163 -179 -6 -34 -10 -462 -10 -1182
l0 -1129 1479 0 1479 0 4 -105 c3 -93 6 -108 26 -127 l23 -23 868 -3 c783 -2
871 -1 885 14 14 14 16 80 16 605 0 388 -4 597 -10 610 -10 17 -23 19 -150 19
l-140 0 0 324 c0 410 17 376 -185 376 l-144 0 -3 323 c-3 299 -4 325 -23 362
-24 46 -90 100 -143 115 -43 12 -3758 13 -3809 0z m3807 -160 c19 -19 20 -33
20 -330 l0 -310 -495 0 c-482 0 -496 -1 -515 -20 -11 -11 -20 -30 -20 -42 0
-13 -1 -351 -3 -753 l-2 -730 -1407 -3 -1408 -2 0 1083 c0 1076 0 1083 20
1105 l21 22 1884 0 c1872 0 1885 0 1905 -20z m420 -1055 l0 -285 -153 0 c-106
0 -157 -4 -165 -12 -9 -9 -12 -142 -12 -535 l0 -523 -510 0 -510 0 0 820 0
820 675 0 675 0 0 -285z m320 -903 c0 -280 -2 -511 -4 -513 -2 -2 -135 -3
-295 -1 l-291 3 0 509 0 510 295 0 295 0 0 -508z"/>
<path d="M1930 2409 c-14 -6 -41 -28 -61 -50 -40 -45 -54 -96 -40 -146 11 -37
56 -90 93 -109 40 -21 107 -17 148 7 44 27 51 38 39 63 -10 20 -10 21 5 2 18
-22 17 -22 34 17 32 75 -8 170 -90 213 -31 16 -91 17 -128 3z"/>
<path d="M4675 1969 c-74 -42 -88 -105 -35 -157 35 -36 71 -44 106 -25 69 35
86 108 36 156 -32 31 -78 42 -107 26z"/>
</g>
</svg>
